erDiagram
    APIARIO {
        int api_id PK
        string api_luogo
        string api_nome
    }

    ARNIA {
        int arn_id PK
        date arn_dataInst
        boolean arn_piena
    }

    SENSORE {
        int sen_id PK
        enum sen_tipo
        boolean sen_stato
    }

    RILEVAZIONE {
        int ril_id PK
        float ril_dato
        date ril_data
        time ril_ora
    }

    NOTIFICA {
        int not_id PK
        string not_titolo
        date not_data
        time not_ora
        string not_desc
    }

    APIARIO ||--o{ ARNIA : contiene
    ARNIA ||--o{ SENSORE : ospita
    SENSORE ||--o{ RILEVAZIONE : genera
    RILEVAZIONE ||--|| NOTIFICA : attiva